<svg width="558" height="149" viewBox="0 0 558 149" fill="none" xmlns="http://www.w3.org/2000/svg">
<rect opacity="0.1" x="1" y="1" width="556" height="147" stroke="white" stroke-width="2"/>
<g opacity="0.7">
<mask id="path-2-inside-1_679_50" fill="white">
<path d="M0 0H39V39H0V0Z"/>
</mask>
<path d="M0 0V-2H-2V0H0ZM0 2H39V-2H0V2ZM2 39V0H-2V39H2Z" fill="white" mask="url(#path-2-inside-1_679_50)"/>
<mask id="path-4-inside-2_679_50" fill="white">
<path d="M0 149L-1.70474e-06 110L39 110L39 149L0 149Z"/>
</mask>
<path d="M0 149L-2 149L-2 151L8.74228e-08 151L0 149ZM2 149L2 110L-2 110L-2 149L2 149ZM39 147L-8.74228e-08 147L8.74228e-08 151L39 151L39 147Z" fill="white" mask="url(#path-4-inside-2_679_50)"/>
<mask id="path-6-inside-3_679_50" fill="white">
<path d="M558 0H519V39H558V0Z"/>
</mask>
<path d="M558 0V-2H560V0H558ZM558 2H519V-2H558V2ZM556 39V0H560V39H556Z" fill="white" mask="url(#path-6-inside-3_679_50)"/>
<mask id="path-8-inside-4_679_50" fill="white">
<path d="M558 149L558 110L519 110L519 149L558 149Z"/>
</mask>
<path d="M558 149L560 149L560 151L558 151L558 149ZM556 149L556 110L560 110L560 149L556 149ZM519 147L558 147L558 151L519 151L519 147Z" fill="white" mask="url(#path-8-inside-4_679_50)"/>
</g>
</svg>
